<svg width="148" height="37" viewBox="0 0 148 37" fill="none" xmlns="http://www.w3.org/2000/svg">
<path d="M135.923 27.3C134.826 27.6967 133.729 27.895 132.633 27.895C131.536 27.895 130.614 27.5683 129.868 26.915C129.121 26.2617 128.689 25.375 128.573 24.255C128.456 23.135 128.351 21.5133 128.258 19.39C128.164 17.2433 128.071 15.7267 127.978 14.84C127.674 11.8767 126.741 9.765 125.178 8.505C126.274 7.50167 127.651 7 129.308 7C130.218 7 131.011 7.245 131.688 7.735C132.364 8.20167 132.901 8.83167 133.298 9.625C133.718 10.395 134.056 11.3983 134.313 12.635C134.709 14.6883 134.908 17.465 134.908 20.965C134.908 21.8283 134.873 22.8433 134.803 24.01H136.833C139.236 17.5233 140.438 13.1017 140.438 10.745C140.438 9.95167 140.263 9.205 139.913 8.505C141.546 7.50167 142.969 7 144.183 7C146.446 7 147.578 8.30667 147.578 10.92C147.578 12.9967 146.621 16.6483 144.708 21.875C144.358 22.8317 144.159 23.3917 144.113 23.555C141.149 32.0017 136.938 36.225 131.478 36.225C129.821 36.225 128.456 35.8633 127.383 35.14C126.309 34.44 125.773 33.5067 125.773 32.34C125.773 31.1967 126.204 29.995 127.068 28.735C128.188 30.3217 129.588 31.115 131.268 31.115C132.224 31.115 133.111 30.8 133.928 30.17C134.768 29.54 135.433 28.5833 135.923 27.3Z" fill="url(#paint0_linear_2_3)"/>
<path d="M103.558 19.67C103.558 15.9367 104.842 12.8917 107.408 10.535C109.975 8.17833 113.207 7 117.103 7C119.11 7 120.697 7.385 121.863 8.155C123.03 8.90167 123.613 9.84667 123.613 10.99C123.613 12.1333 123.217 13.0083 122.423 13.615C121.653 14.2217 120.802 14.525 119.868 14.525C118.958 14.525 118.118 14.28 117.348 13.79C116.602 13.3 116.018 12.5883 115.598 11.655C114.128 12.2617 112.962 13.335 112.098 14.875C111.258 16.415 110.838 17.955 110.838 19.495C110.838 21.035 111.142 22.2833 111.748 23.24C112.355 24.1967 113.148 24.675 114.128 24.675C115.108 24.675 115.902 24.3483 116.508 23.695C117.138 23.0417 117.453 22.0733 117.453 20.79C120.86 20.79 122.563 21.595 122.563 23.205C122.563 24.5817 121.7 25.8767 119.973 27.09C118.247 28.28 115.972 28.875 113.148 28.875C110.325 28.875 108.015 28.035 106.218 26.355C104.445 24.6517 103.558 22.4233 103.558 19.67Z" fill="url(#paint1_linear_2_3)"/>
<path d="M80.9965 34.965C79.5499 34.965 78.5349 34.6033 77.9515 33.88C77.3915 33.18 77.1115 32.1533 77.1115 30.8C77.1115 29.47 77.3915 26.775 77.9515 22.715C78.5349 18.655 79.0949 15.19 79.6315 12.32L77.6715 9.52C79.1182 8.68 80.3665 8.05 81.4165 7.63C82.4665 7.18666 83.5049 6.965 84.5315 6.965C86.2115 6.965 87.0515 8.07333 87.0515 10.29C87.0515 10.5933 87.0049 11.2117 86.9115 12.145L87.2615 12.32C87.9382 10.64 88.9182 9.33333 90.2015 8.4C91.4849 7.44333 92.9899 6.965 94.7165 6.965C96.4665 6.965 97.8549 7.75833 98.8815 9.34499C99.9082 10.9083 100.422 12.8567 100.422 15.19C100.422 18.3167 99.3249 21.1633 97.1315 23.73C96.0582 24.99 94.6232 26.0167 92.8265 26.81C91.0299 27.58 89.0232 27.965 86.8065 27.965C86.1299 27.965 85.2432 27.9067 84.1465 27.79C84.0765 28.6067 84.0415 29.365 84.0415 30.065C84.0415 31.5583 84.4032 32.62 85.1265 33.25C83.8199 34.3933 82.4432 34.965 80.9965 34.965ZM85.5815 20.475L84.7765 24.535C87.5999 24.465 89.8515 23.5433 91.5315 21.77C93.2349 19.9733 94.0865 18.0133 94.0865 15.89C94.0865 14.7933 93.8649 13.9183 93.4215 13.265C93.0015 12.5883 92.3832 12.25 91.5665 12.25C88.6732 12.25 86.6782 14.9917 85.5815 20.475Z" fill="url(#paint2_linear_2_3)"/>
<path d="M68.997 9.66C70.3037 9.66 71.4237 10.185 72.357 11.235C73.3137 12.285 73.792 13.8133 73.792 15.82C73.792 17.8033 73.442 19.6467 72.742 21.35C72.042 23.03 71.1203 24.4067 69.977 25.48C68.8337 26.5533 67.5387 27.3933 66.092 28C64.6453 28.5833 63.1637 28.875 61.647 28.875C58.5903 28.875 56.1753 28.035 54.402 26.355C52.6287 24.675 51.742 22.4467 51.742 19.67C51.742 15.9133 52.9437 12.8683 55.347 10.535C57.7737 8.17833 60.8537 7 64.587 7C65.427 7 66.267 7.09333 67.107 7.28C67.3637 8.05 67.5037 8.925 67.527 9.905C68.017 9.74167 68.507 9.66 68.997 9.66ZM64.692 14.525C64.692 13.8717 64.8437 13.1367 65.147 12.32C65.4737 11.5033 65.987 10.85 66.687 10.36C63.607 11.0133 61.4837 12.2617 60.317 14.105C59.3137 15.6917 58.812 17.325 58.812 19.005C58.812 20.685 59.1503 22.0383 59.827 23.065C60.527 24.0683 61.4137 24.57 62.487 24.57C64.867 24.57 66.547 23.0183 67.527 19.915C65.637 18.7483 64.692 16.9517 64.692 14.525Z" fill="url(#paint3_linear_2_3)"/>
<path d="M44.3417 7C47.165 7 48.5767 8.41167 48.5767 11.235C48.5767 12.4483 48.2267 14.5017 47.5267 17.395C46.85 20.2883 46.5117 22.47 46.5117 23.94C46.5117 25.41 46.7567 26.4833 47.2467 27.16C46.01 28.3033 44.7033 28.875 43.3267 28.875C40.6433 28.875 39.3017 27.4283 39.3017 24.535C39.3017 23.4617 39.6517 21.6417 40.3517 19.075C41.0517 16.5083 41.4017 14.84 41.4017 14.07C41.4017 13.02 41.005 12.495 40.2117 12.495C39.5583 12.495 38.8117 12.7867 37.9717 13.37C37.1317 13.93 36.315 14.7 35.5217 15.68C34.7517 16.6367 34.0983 17.8617 33.5617 19.355C33.025 20.825 32.7567 22.33 32.7567 23.87C32.7567 25.3867 33.0017 26.4833 33.4917 27.16C32.255 28.3033 30.9483 28.875 29.5717 28.875C26.8883 28.875 25.5467 27.4283 25.5467 24.535C25.5467 22.8083 26.0133 19.3083 26.9467 14.035C27.74 9.39167 28.195 6.79 28.3117 6.23L26.3517 3.43C29.2683 1.72667 31.5667 0.875 33.2467 0.875C34.2033 0.875 34.88 1.07333 35.2767 1.47C35.6733 1.84333 35.8717 2.47333 35.8717 3.36C35.8717 5.04 35.7083 6.87167 35.3817 8.855C35.055 10.8383 34.7517 12.2967 34.4717 13.23L34.8217 13.405C37.3183 9.135 40.4917 7 44.3417 7Z" fill="url(#paint4_linear_2_3)"/>
<path d="M13.49 2.625C16.57 2.625 18.88 2.98667 20.42 3.71C21.96 4.41 22.73 5.54167 22.73 7.105C22.73 8.645 22.2517 9.82333 21.295 10.64C20.3617 11.4333 19.2883 11.83 18.075 11.83C16.8617 11.83 15.765 11.5267 14.785 10.92C13.8283 10.29 13.1633 9.46167 12.79 8.435C11.9267 8.435 11.0983 8.72667 10.305 9.31C9.535 9.87 9.045 10.605 8.835 11.515C13.455 12.635 16.7683 13.9417 18.775 15.435C20.7817 16.9283 21.785 18.8417 21.785 21.175C21.785 23.5083 20.7233 25.375 18.6 26.775C16.5 28.175 13.6533 28.875 10.06 28.875C6.49 28.875 3.95833 28.385 2.465 27.405C0.971665 26.425 0.224998 25.13 0.224998 23.52C0.224998 21.91 0.726665 20.4283 1.73 19.075C2.22 20.125 3.15333 21.07 4.53 21.91C5.93 22.75 7.30667 23.17 8.66 23.17C11.1567 23.17 12.7433 22.3767 13.42 20.79C9.54667 20.2767 6.595 19.2033 4.565 17.57C2.535 15.9133 1.52 13.9183 1.52 11.585C1.52 10.0217 1.94 8.63333 2.78 7.42C3.62 6.18333 4.69333 5.23833 6 4.585C8.56667 3.27833 11.0633 2.625 13.49 2.625Z" fill="url(#paint5_linear_2_3)"/>
<defs>
<linearGradient id="paint0_linear_2_3" x1="2" y1="1.00001" x2="149" y2="51.5" gradientUnits="userSpaceOnUse">
<stop offset="0.154538" stop-color="#347CC0"/>
<stop offset="0.970643" stop-color="#A516E8" stop-opacity="0.104344"/>
<stop offset="1" stop-opacity="0"/>
</linearGradient>
<linearGradient id="paint1_linear_2_3" x1="2" y1="1.00001" x2="149" y2="51.5" gradientUnits="userSpaceOnUse">
<stop offset="0.154538" stop-color="#347CC0"/>
<stop offset="0.970643" stop-color="#A516E8" stop-opacity="0.104344"/>
<stop offset="1" stop-opacity="0"/>
</linearGradient>
<linearGradient id="paint2_linear_2_3" x1="2" y1="1.00001" x2="149" y2="51.5" gradientUnits="userSpaceOnUse">
<stop offset="0.154538" stop-color="#347CC0"/>
<stop offset="0.970643" stop-color="#A516E8" stop-opacity="0.104344"/>
<stop offset="1" stop-opacity="0"/>
</linearGradient>
<linearGradient id="paint3_linear_2_3" x1="2" y1="1.00001" x2="149" y2="51.5" gradientUnits="userSpaceOnUse">
<stop offset="0.154538" stop-color="#347CC0"/>
<stop offset="0.970643" stop-color="#A516E8" stop-opacity="0.104344"/>
<stop offset="1" stop-opacity="0"/>
</linearGradient>
<linearGradient id="paint4_linear_2_3" x1="2" y1="1.00001" x2="149" y2="51.5" gradientUnits="userSpaceOnUse">
<stop offset="0.154538" stop-color="#347CC0"/>
<stop offset="0.970643" stop-color="#A516E8" stop-opacity="0.104344"/>
<stop offset="1" stop-opacity="0"/>
</linearGradient>
<linearGradient id="paint5_linear_2_3" x1="2" y1="1" x2="149" y2="51.5" gradientUnits="userSpaceOnUse">
<stop offset="0.154538" stop-color="#347CC0"/>
<stop offset="0.970643" stop-color="#A516E8" stop-opacity="0.104344"/>
<stop offset="1" stop-opacity="0"/>
</linearGradient>
</defs>
</svg>
